<?xml version="1.0" encoding="UTF-8"?>
<svg width="36px" height="43px" viewBox="0 0 36 43" version="1.1" xmlns="http://www.w3.org/2000/svg" xmlns:xlink="http://www.w3.org/1999/xlink">
    <title>位置</title>
    <g id="最终版" stroke="none" stroke-width="1" fill="none" fill-rule="evenodd">
        <g id="位置" fill="#FFFFFF" fill-rule="nonzero">
            <path d="M18.0741468,42.6568895 L17.1964618,41.8533085 C16.531829,41.2488878 0.902563908,26.8654902 0.902563908,17.6324404 C0.902563908,8.16087082 8.60489318,0.463139211 18.0741425,0.463139211 C27.5457121,0.463139211 35.2503617,8.16546849 35.2503617,17.6347178 C35.2503617,26.8700879 19.6141443,41.2511867 18.9495029,41.8579061 L18.0741339,42.6568895 L18.0741468,42.6568895 Z M18.0741468,3.05916372 L18.0741462,3.05916372 C10.030172,3.06937366 3.51210578,9.58844475 3.50316827,17.6324619 C3.50316827,23.9314302 13.3105391,34.5817629 18.0741462,39.1160455 C22.8377103,34.5817199 32.6497222,23.9313872 32.6497222,17.6324619 L32.6497222,17.6328143 C32.6397068,9.58755099 26.1197536,3.06832466 18.0744904,3.05916372 L18.0741468,3.05916372 Z M18.0741468,23.9939068 L18.0741472,23.9939068 C14.1701137,23.991354 11.0055648,20.8278238 11.0016974,16.9237775 L11.0016974,16.9238914 C11.0067404,13.0203865 14.1705089,9.85754334 18.0740181,9.85367615 L18.0740186,9.85367615 C21.9766168,9.85877951 25.1390346,13.02119 25.144148,16.9238055 L25.144148,16.9236884 C25.1391068,20.8259128 21.9763764,23.9877161 18.0741476,23.9915833 L18.0741468,23.9939068 Z M18.0741468,12.4520145 C15.6055119,12.4520145 13.6023405,14.4574887 13.6023405,16.9238205 L13.6023405,16.9238123 C13.6818289,19.3935171 15.7483571,21.3311651 18.218049,21.2516728 C20.576108,21.1757779 22.470018,19.2818713 22.5459095,16.9238123 C22.5459095,14.4574934 20.5381193,12.4543266 18.0741035,12.4543266 L18.0741468,12.4520145 Z" id="形状"></path>
        </g>
    </g>
</svg>