<?xml version="1.0" encoding="UTF-8"?>
<svg width="32px" height="44px" viewBox="0 0 32 44" version="1.1" xmlns="http://www.w3.org/2000/svg" xmlns:xlink="http://www.w3.org/1999/xlink">
    <title>新房位置图标</title>
    <g id="最终版" stroke="none" stroke-width="1" fill="none" fill-rule="evenodd">
        <g id="新房位置图标" fill="#FFFFFF" fill-rule="nonzero">
            <path d="M31.2353742,13.772016 C31.2353742,6.16516342 23.8329671,0 15.6023794,0 C7.37952612,0 0.176494305,6.16516342 0.176494305,13.772016 C0.176494305,20.8249578 15.4315785,37.7132001 15.4315785,37.7132001 C15.4315785,37.7132001 31.2353742,21.0578917 31.2353742,13.7693949 L31.2353742,13.772016 Z M10.6847292,14.2586033 C10.6847292,11.6574225 13.0063807,9.54544158 15.8638016,9.54544158 C18.7263917,9.54544158 21.0402959,11.6548573 21.0402959,14.2586033 C21.0402959,16.8649575 18.7212354,18.9743861 15.8638016,18.9743861 C13.006385,18.9692096 10.6873073,16.8623837 10.6873073,14.2586033 L10.6847292,14.2586033 Z M20.8228738,38.1221428 L20.8228738,38.1221428 C20.8668687,38.2432968 20.889634,38.371132 20.8901681,38.5000255 C20.8901681,39.8019114 18.5711076,40.8553216 15.7136738,40.8553216 C12.8562572,40.8553216 10.5371795,39.8019071 10.5371795,38.5000255 C10.5371795,38.3706138 10.5578854,38.2463781 10.6018854,38.1221428 C7.47011726,38.6656724 5.35810191,39.685438 5.35810191,40.8579105 C5.35810191,42.5946191 9.99361902,44.0000297 15.7110475,44.0000297 C21.4310542,44.0000297 26.0691924,42.5946148 26.0691924,40.8579105 C26.0640159,39.685438 23.9546032,38.6630856 20.8228308,38.1221428 L20.8228738,38.1221428 Z" id="形状"></path>
        </g>
    </g>
</svg>