<?xml version="1.0" encoding="UTF-8"?>
<svg width="34px" height="36px" viewBox="0 0 34 36" version="1.1" xmlns="http://www.w3.org/2000/svg" xmlns:xlink="http://www.w3.org/1999/xlink">
    <title>电 话</title>
    <g id="页面-1" stroke="none" stroke-width="1" fill="none" fill-rule="evenodd">
        <g id="楼盘模板3" transform="translate(-353.000000, -5428.000000)" fill="#FFFFFF" fill-rule="nonzero">
            <g id="编组-3" transform="translate(0.000000, 5380.000000)">
                <g id="编组-7" transform="translate(353.000000, 41.000000)">
                    <g id="电-话" transform="translate(0.000000, 7.500000)">
                        <path d="M23.9587581,15.5171477 C23.9587581,16.224829 24.4298456,16.6959165 25.1354331,16.6959165 C25.8431144,16.6959165 26.3142019,16.224829 26.3142019,15.5171477 L26.3142019,15.5171409 C26.3026999,11.6181184 23.1447797,8.46021842 19.2457638,8.4487355 C18.5380825,8.4487355 18.066995,8.91772919 18.066995,9.6254105 C18.066995,10.3330918 18.5401762,10.8041792 19.2457638,10.8041792 L19.2457639,10.8041792 C21.844989,10.8122316 23.9497682,12.9179321 23.9566383,15.5171474 L23.9587581,15.5171477 Z M28.6696325,15.5171477 C28.6696325,16.224829 29.1428137,16.6959165 29.8484013,16.6959165 C30.5560826,16.6959165 31.02717,16.224829 31.02717,15.5171477 C31.02717,9.0370537 25.7237641,3.73364776 19.2457638,3.73364776 C18.5380825,3.73364776 18.0669951,4.20682895 18.0669951,4.91451026 C18.0669951,5.62009781 18.5401763,6.09118525 19.2457638,6.09118525 L19.2457642,6.09118525 C24.4449079,6.10727841 28.6556375,10.3180106 28.6717332,15.5171543 L28.6696325,15.5171477 Z M12.767757,11.3924909 C14.0637758,10.0985658 14.1810226,8.09486574 13.0022545,6.6816165 L9.3507854,2.08171091 C8.17201666,0.55328901 5.93381643,0.316698414 4.40122339,1.49546716 C4.28397464,1.61480966 4.16672589,1.61480966 4.16672589,1.73205841 L0.9842603,4.914524 C-2.07676773,7.97764578 2.28237286,16.2248362 10.1757292,24.1202732 C18.0690725,32.0136165 26.1948221,36.2576171 29.2579471,33.3117421 L32.4404127,30.1292766 C33.8536783,28.7139172 33.8536783,26.4757137 32.4404127,25.1797145 L32.2038215,24.9431233 L27.6081034,21.2916542 L27.6081034,21.2916542 C26.2197436,20.1209889 24.1624435,20.2233963 22.897229,21.5261517 L20.8956259,23.5319423 C18.774679,22.2338297 16.8903129,20.8205641 15.2404698,19.1706916 C13.5885198,17.5208354 12.1794418,15.6364726 10.8813128,13.5134417 L12.7656691,11.3945886 L12.767757,11.3924909 Z M11.1179008,8.21002532 C11.4717415,8.68320651 11.4717415,9.39088781 10.9985583,9.74472847 L8.40652397,12.4540129 L8.40652399,12.4540128 C8.03901507,12.8298052 7.94534915,13.3951343 8.17202649,13.8693722 L8.17202495,13.8693694 C9.56083619,16.4210728 11.3064291,18.7616804 13.3560871,20.8205574 C15.4142215,22.8703167 17.7549926,24.6164953 20.3072751,26.0046195 L20.3072752,26.0046195 C20.7813888,26.2297711 21.3456089,26.1353164 21.7205408,25.7680283 L24.4298252,23.0587439 L24.4298252,23.0587439 C24.8270556,22.6159286 25.5024702,22.5642555 25.9624346,22.9414951 L30.5560589,26.7102143 C30.5560589,26.7102143 30.6733077,26.7102143 30.6733077,26.8295568 L30.6733077,26.8295568 C31.1289047,27.263297 31.1466198,27.9842475 30.712879,28.4398411 C30.7000146,28.4533538 30.6868201,28.4665482 30.6733074,28.4794127 L27.4908418,31.6618783 C25.9624199,33.1903002 18.6574044,29.3043408 11.7062164,22.4704094 C4.75502835,15.6343777 0.986341913,8.21212842 2.51893496,6.67950266 L5.81446637,3.37978374 C6.28764756,3.02594309 7.11257893,3.02594309 7.46641631,3.61637499 L11.1178854,8.21418684 L11.1178854,8.21209312 L11.1179008,8.21002532 Z" id="形状"></path>
                    </g>
                </g>
            </g>
        </g>
    </g>
</svg>