<?xml version="1.0" encoding="UTF-8"?>
<svg width="32px" height="34px" viewBox="0 0 32 34" version="1.1" xmlns="http://www.w3.org/2000/svg" xmlns:xlink="http://www.w3.org/1999/xlink">
    <title>表单</title>
    <g id="页面-1" stroke="none" stroke-width="1" fill="none" fill-rule="evenodd">
        <g id="楼盘模板3" transform="translate(-102.000000, -5408.000000)" fill="#FFFFFF" fill-rule="nonzero">
            <g id="编组-3" transform="translate(0.000000, 5380.000000)">
                <g id="编组-5" transform="translate(40.000000, 28.500000)">
                    <g id="表单" transform="translate(62.000000, 0.000000)">
                        <path d="M21.7520945,1.42450273 L19.2723769,4.23500708 L6.46836201,4.23500708 C4.64550306,4.23500708 3.16835817,5.67286451 3.16835817,7.44779607 L3.16835817,26.3371598 C3.16835817,28.1113051 4.64550306,29.5499488 6.46836201,29.5499488 L25.0316571,29.5499488 C26.854516,29.5499488 28.3316609,28.1120914 28.3316609,26.3371598 L28.3316609,11.9664166 L31.2191643,8.69312857 L31.2191643,26.3371598 C31.2191643,29.6638795 28.4487337,32.3604403 25.0308836,32.3604403 L6.46994112,32.3604403 C3.0520846,32.3604403 0.281660478,29.6638666 0.281660478,26.3371598 L0.281660478,7.44856951 C0.281660478,4.12184982 3.05209105,1.42528906 6.46916768,1.42528906 L21.7528905,1.42528906 L21.7520945,1.42450273 Z M23.1160951,21.3125366 L23.1160951,24.2589695 L8.38393045,24.2589695 L8.38393045,21.3125366 L23.1160951,21.3125366 Z M23.1160951,13.9464704 L23.1160951,16.8929033 L8.38393045,16.8929033 L8.38393045,13.9464704 L23.1160951,13.9464704 L23.1160951,13.9464704 Z M30.6699456,1.07329725 C31.1602315,1.55258413 31.2089452,2.31237134 30.8113743,2.84744247 L30.6919455,2.98729979 L22.5707778,11.2930936 L20.6112039,11.294665 L20.6112039,9.42466179 L28.7559292,1.0953103 L28.7559292,1.09531037 C29.2786801,0.561080358 30.1354693,0.551583179 30.6699314,1.07409593 L30.6699456,1.07329725 Z" id="形状"></path>
                    </g>
                </g>
            </g>
        </g>
    </g>
</svg>